<svg id="bg" data-name="Layer 1" xmlns="http://www.w3.org/2000/svg" xmlns:xlink="http://www.w3.org/1999/xlink" viewBox="0 0 1920 997">

<defs><linearGradient id="linear-gradient" x1="601.93" y1="5498.63" x2="1659.83" y2="5498.63" gradientTransform="matrix(1, 0, 0, -1, 0, 6086)" gradientUnits="userSpaceOnUse"><stop offset="0" stop-color="#fff"/><stop offset="0.92" stop-color="#3c3b52" stop-opacity="0"/></linearGradient><linearGradient id="linear-gradient-2" x1="1649.56" y1="5008.94" x2="1694.67" y2="5087.08" gradientTransform="matrix(1, -0.08, -0.08, -1, 188.29, 5829.82)" gradientUnits="userSpaceOnUse"><stop offset="0" stop-color="#252233"/><stop offset="0.92" stop-color="#3c3b52"/></linearGradient><linearGradient id="linear-gradient-3" x1="1252.26" y1="5274.6" x2="1327.04" y2="5404.1" gradientTransform="matrix(1, 0, 0, -1, 0, 6086)" xlink:href="#linear-gradient-2"/><linearGradient id="linear-gradient-4" x1="1272.63" y1="5310.69" x2="1309.07" y2="5373.81" gradientTransform="matrix(1, 0, 0, -1, 0, 6086)" xlink:href="#linear-gradient-2"/><linearGradient id="linear-gradient-5" x1="1285.44" y1="5323.22" x2="1321.26" y2="5385.28" gradientTransform="matrix(1, 0, 0, -1, 0, 6086)" xlink:href="#linear-gradient-2"/><linearGradient id="linear-gradient-6" x1="1297.59" y1="5334.14" x2="1333.11" y2="5395.66" gradientTransform="matrix(1, 0, 0, -1, 0, 6086)" xlink:href="#linear-gradient-2"/><linearGradient id="linear-gradient-7" x1="1311.46" y1="5346.63" x2="1346.24" y2="5406.87" gradientTransform="matrix(1, 0, 0, -1, 0, 6086)" xlink:href="#linear-gradient-2"/></defs><title>bg</title><ellipse cx="258.5" cy="284.5" rx="5.2" ry="5" style="fill:#fff"/><ellipse cx="481.5" cy="381.5" rx="5.2" ry="5" style="fill:#fff"/><ellipse cx="130.5" cy="543.5" rx="5.2" ry="5" style="fill:#fff"/><ellipse cx="360.5" cy="635.5" rx="5.2" ry="5" style="fill:#fff"/><ellipse cx="817.5" cy="371.5" rx="5.2" ry="5" style="fill:#fff"/><ellipse cx="1302.5" cy="166.5" rx="5.2" ry="5" style="fill:#fff"/><ellipse cx="874.5" cy="161.5" rx="4.7" ry="4.5" style="fill:#fff"/><path d="M874.5,157.5a4,4,0,1,1-4.2,4,4.12,4.12,0,0,1,4.2-4m0-1a5,5,0,1,0,5.2,5,5.06,5.06,0,0,0-5.2-5Z"/><ellipse cx="680.5" cy="630.5" rx="5.2" ry="5" style="fill:#fff"/><ellipse cx="1016.5" cy="587.5" rx="5.2" ry="5" style="fill:#fff"/><ellipse cx="1793.5" cy="371.5" rx="5.2" ry="5" style="fill:#fff"/><ellipse cx="1444.5" cy="822.5" rx="5.2" ry="5" style="fill:#fff"/><ellipse cx="1572.5" cy="250.5" rx="5.2" ry="5" style="fill:#fff"/><ellipse cx="1756.5" cy="86.5" rx="5.2" ry="5" style="fill:#fff"/><ellipse cx="1116.5" cy="386.5" rx="5.2" ry="5" style="fill:#fff"/><ellipse cx="954.5" cy="837.5" rx="5.2" ry="5" style="fill:#fff"/><ellipse cx="1798.5" cy="674.5" rx="5.2" ry="5" style="fill:#fff"/><ellipse cx="582.5" cy="858.5" rx="5.2" ry="5" style="fill:#fff"/><ellipse cx="186.5" cy="832.5" rx="5.2" ry="5" style="fill:#fff"/><path d="M1647.7,476.9,614.3,232.8c-9.5-2.2-16.3,9.1-9.8,16.4l612.3,688.4a10,10,0,0,0,6.7,3.3c46.9,3.8,485.4,27,431.8-455.3A10,10,0,0,0,1647.7,476.9Z" style="fill:url(#linear-gradient)"/><circle cx="817" cy="372" r="26" style="fill:#fff;opacity:0.20000000298023224;isolation:isolate"/><circle cx="1572" cy="251" r="26" style="fill:#fff;opacity:0.20000000298023224;isolation:isolate"/><circle cx="582" cy="859" r="26" style="fill:#fff;opacity:0.20000000298023224;isolation:isolate"/><circle cx="130" cy="543" r="26" style="fill:#fff;opacity:0.20000000298023224;isolation:isolate"/><circle cx="1799" cy="675" r="26" style="fill:#fff;opacity:0.20000000298023224;isolation:isolate"/><path d="M1492,514l-55,44-4,4-10,24,5,22-7,8,49,12.5,41-41.5Zm-55.5,101.5-6-16-1-14,4-11,3,3,10,35Z" style="fill:#fff"/><path d="M1347.3,649l3.7-4-1-7s2-3,6-1v5l13-10s-1-4,1-6a50,50,0,0,1,7-5s2,1,2,2h4a2.94,2.94,0,0,1,3-3h4v2l9-1-9-32s-3-3,0-5c0,0,3-1,3,4v1l9,31,5,1,3-1-1-4,2-2,8-1,1,1,1,2,22.3,5.7L1460,703l-24,19-82,9-23-74Z" style="fill:#ff931e"/><path d="M1350,649h-21l-116,95,39,106,105-106,15-32Zm10.5,76.5-4,4-21-70,1-3h7s4.5,3.9,8,12c6,14,10.6,30.3,10,44Z" style="fill:#fff"/><path d="M1478.9,663.8c2.2,27.8-5.8,51.1-17.9,52.1s-23.7-20.8-25.9-48.6,5.8-51.1,17.9-52.1S1476.7,636,1478.9,663.8Z" style="fill:url(#linear-gradient-2)"/><line x1="1233.3" y1="799.3" x2="1346" y2="694" style="fill:none;stroke-linecap:round;stroke-miterlimit:10;stroke-width:2px;stroke:url(#linear-gradient-3)"/><line x1="1274.7" y1="693.5" x2="1307" y2="794" style="fill:none;stroke-linecap:round;stroke-miterlimit:10;stroke-width:2px;stroke:url(#linear-gradient-4)"/><line x1="1287.7" y1="682.5" x2="1319" y2="781" style="fill:none;stroke-linecap:round;stroke-miterlimit:10;stroke-width:2px;stroke:url(#linear-gradient-5)"/><line x1="1299.7" y1="672.2" x2="1331" y2="770" style="fill:none;stroke-linecap:round;stroke-miterlimit:10;stroke-width:2px;stroke:url(#linear-gradient-6)"/><line x1="1313.7" y1="661.5" x2="1344" y2="757" style="fill:none;stroke-linecap:round;stroke-miterlimit:10;stroke-width:2px;stroke:url(#linear-gradient-7)"/><path d="M1453,662h12l12-4s3,1,3,6c0,0,0,7-1,8s-13-3-13-3l-13,3S1449,665,1453,662Z" style="fill:#fff"/><ellipse cx="316.5" cy="65.5" rx="4.7" ry="4.5" style="fill:#fff"/><path d="M316.5,61.5a4,4,0,1,1-4.2,4,4.12,4.12,0,0,1,4.2-4m0-1a5,5,0,1,0,5.2,5,5.06,5.06,0,0,0-5.2-5Z"/>

</svg>
