<?xml version="1.0" encoding="utf-8"?>
<!-- Generator: Adobe Illustrator 22.1.0, SVG Export Plug-In . SVG Version: 6.00 Build 0)  -->
<svg version="1.1" xmlns="http://www.w3.org/2000/svg" xmlns:xlink="http://www.w3.org/1999/xlink" x="0px" y="0px"
	 viewBox="0 0 1920 366.5" style="enable-background:new 0 0 1920 366.5;" xml:space="preserve">
<style type="text/css">
	.st0{fill:#FFFFFF;}
	.st1{fill:#FF931E;}
	.st2{fill:url(#SVGID_1_);}
	.st3{fill:none;stroke:url(#SVGID_2_);stroke-width:2;stroke-linecap:round;stroke-miterlimit:10;}
	.st4{fill:none;stroke:url(#SVGID_3_);stroke-width:2;stroke-linecap:round;stroke-miterlimit:10;}
	.st5{fill:none;stroke:url(#SVGID_4_);stroke-width:2;stroke-linecap:round;stroke-miterlimit:10;}
	.st6{fill:none;stroke:url(#SVGID_5_);stroke-width:2;stroke-linecap:round;stroke-miterlimit:10;}
	.st7{fill:none;stroke:url(#SVGID_6_);stroke-width:2;stroke-linecap:round;stroke-miterlimit:10;}
	.st8{fill:url(#SVGID_7_);}
	.st9{fill:none;stroke:url(#SVGID_8_);stroke-width:2;stroke-linecap:round;stroke-miterlimit:10;}
	.st10{fill:none;stroke:url(#SVGID_9_);stroke-width:2;stroke-linecap:round;stroke-miterlimit:10;}
	.st11{fill:none;stroke:url(#SVGID_10_);stroke-width:2;stroke-linecap:round;stroke-miterlimit:10;}
	.st12{fill:none;stroke:url(#SVGID_11_);stroke-width:2;stroke-linecap:round;stroke-miterlimit:10;}
	.st13{fill:none;stroke:url(#SVGID_12_);stroke-width:2;stroke-linecap:round;stroke-miterlimit:10;}
	.st14{fill:url(#SVGID_13_);}
	.st15{fill:none;stroke:url(#SVGID_14_);stroke-width:2;stroke-linecap:round;stroke-miterlimit:10;}
	.st16{fill:none;stroke:url(#SVGID_15_);stroke-width:2;stroke-linecap:round;stroke-miterlimit:10;}
	.st17{fill:none;stroke:url(#SVGID_16_);stroke-width:2;stroke-linecap:round;stroke-miterlimit:10;}
	.st18{fill:none;stroke:url(#SVGID_17_);stroke-width:2;stroke-linecap:round;stroke-miterlimit:10;}
	.st19{fill:none;stroke:url(#SVGID_18_);stroke-width:2;stroke-linecap:round;stroke-miterlimit:10;}
	.st20{fill:#F2F2F2;}
	.st21{display:none;}
	.st22{display:inline;}
	.st23{opacity:0.6;fill:#FFE853;enable-background:new    ;}
	.st24{fill:#FFE853;}
	.st25{fill:url(#SVGID_19_);}
	.st26{fill:url(#SVGID_20_);}
	.st27{opacity:0.6;fill:#13D4EB;enable-background:new    ;}
	.st28{fill:url(#SVGID_21_);}
	.st29{fill:url(#SVGID_22_);stroke:url(#SVGID_23_);stroke-miterlimit:10;}
	.st30{opacity:0.2;fill:#FFFFFF;enable-background:new    ;}
	.st31{fill:none;}
	.st32{fill:#13D4EB;}
	.st33{fill:#537838;}
	.st34{fill:#E46855;}
	.st35{fill:url(#SVGID_24_);}
	.st36{fill:url(#SVGID_25_);}
	.st37{fill:url(#SVGID_26_);}
	.st38{fill:url(#SVGID_27_);}
	.st39{fill:url(#SVGID_28_);}
	.st40{fill:url(#SVGID_29_);}
	.st41{fill:url(#SVGID_30_);}
	.st42{fill:url(#SVGID_31_);}
	.st43{fill:url(#SVGID_32_);}
	.st44{fill:url(#SVGID_33_);}
	.st45{fill:url(#SVGID_34_);}
	.st46{fill:url(#SVGID_35_);}
	.st47{fill:url(#SVGID_36_);}
	.st48{fill:url(#SVGID_37_);}
	.st49{fill:url(#SVGID_38_);}
	.st50{fill:url(#SVGID_39_);}
	.st51{fill:url(#SVGID_40_);}
	.st52{fill:url(#SVGID_41_);}
	.st53{opacity:0.5;fill:#537838;enable-background:new    ;}
	.st54{fill:url(#SVGID_42_);}
	.st55{fill:url(#SVGID_43_);}
	.st56{opacity:0.6;fill:#E46855;enable-background:new    ;}
	.st57{fill:url(#SVGID_44_);}
	.st58{fill:url(#SVGID_45_);}
	.st59{opacity:0.5;}
	.st60{fill:url(#SVGID_46_);}
	.st61{fill:url(#SVGID_47_);}
	.st62{opacity:0.8;}
	.st63{fill:url(#SVGID_48_);}
	.st64{fill:url(#SVGID_49_);}
	.st65{fill:url(#SVGID_50_);}
	.st66{fill:url(#SVGID_51_);}
	.st67{opacity:0.1;}
	.st68{fill:url(#SVGID_52_);}
	.st69{fill:url(#SVGID_53_);}
	.st70{fill:url(#SVGID_54_);}
	.st71{fill:url(#SVGID_55_);}
	.st72{enable-background:new    ;}
	.st73{fill:url(#SVGID_56_);}
	.st74{fill:url(#SVGID_57_);}
	.st75{fill:url(#SVGID_58_);}
	.st76{fill:url(#SVGID_59_);}
	.st77{fill:url(#SVGID_60_);}
	.st78{fill:url(#SVGID_61_);}
	.st79{fill:url(#SVGID_62_);}
	.st80{fill:url(#SVGID_63_);}
	.st81{fill:url(#SVGID_64_);}
	.st82{fill:url(#SVGID_65_);}
	.st83{fill:url(#SVGID_66_);}
	.st84{fill:url(#SVGID_67_);}
	.st85{fill:url(#SVGID_68_);}
	.st86{fill:url(#SVGID_69_);}
	.st87{fill:url(#SVGID_70_);}
	.st88{fill:url(#SVGID_71_);}
	.st89{fill:url(#SVGID_72_);}
	.st90{fill:url(#SVGID_73_);}
	.st91{fill:url(#SVGID_74_);}
	.st92{fill:url(#SVGID_75_);}
	.st93{fill:url(#SVGID_76_);}
	.st94{fill:url(#SVGID_77_);}
	.st95{fill:url(#SVGID_78_);}
	.st96{fill:url(#SVGID_79_);}
	.st97{opacity:0.6;fill:#537838;enable-background:new    ;}
	.st98{fill:url(#SVGID_80_);}
	.st99{fill:url(#SVGID_81_);}
	.st100{fill:url(#SVGID_82_);}
	.st101{fill:url(#SVGID_83_);}
	.st102{fill:url(#SVGID_84_);}
	.st103{fill:url(#SVGID_85_);}
	.st104{fill:url(#SVGID_86_);}
	.st105{fill:url(#SVGID_87_);}
	.st106{fill:url(#SVGID_88_);}
	.st107{fill:url(#SVGID_89_);}
	.st108{fill:url(#SVGID_90_);}
	.st109{fill:url(#SVGID_91_);}
	.st110{fill:url(#SVGID_92_);}
	.st111{fill:url(#SVGID_93_);}
	.st112{fill:#212121;}
	.st113{fill:#CCCBCA;}
	.st114{fill:#01A950;}
	.st115{fill:#FBDE2F;}
	.st116{fill:#253370;}
	.st117{fill:#03A94E;}
	.st118{fill:none;stroke:url(#SVGID_94_);stroke-width:0.75;stroke-miterlimit:10;}
	.st119{fill:url(#SVGID_95_);}
	.st120{fill:url(#SVGID_96_);}
	.st121{fill:url(#SVGID_97_);}
	.st122{fill:url(#SVGID_98_);}
	.st123{fill:url(#SVGID_99_);}
	.st124{fill:url(#SVGID_100_);}
	.st125{fill:url(#SVGID_101_);}
	.st126{fill:url(#SVGID_102_);}
	.st127{fill:url(#SVGID_103_);}
	.st128{fill:url(#SVGID_104_);}
	.st129{fill:url(#SVGID_105_);}
	.st130{fill:url(#SVGID_106_);}
	.st131{fill:url(#SVGID_107_);}
	.st132{fill:url(#SVGID_108_);}
	.st133{fill:url(#SVGID_109_);}
	.st134{fill:url(#SVGID_110_);}
	.st135{fill:url(#SVGID_111_);}
	.st136{fill:url(#SVGID_112_);}
	.st137{fill:url(#SVGID_113_);}
	.st138{fill:url(#SVGID_114_);}
	.st139{fill:url(#SVGID_115_);}
	.st140{fill:url(#SVGID_116_);}
	.st141{fill:url(#SVGID_117_);}
	.st142{fill:url(#SVGID_118_);}
	.st143{fill:url(#SVGID_119_);}
	.st144{fill:url(#SVGID_120_);}
	.st145{fill:url(#SVGID_121_);}
	.st146{fill:url(#SVGID_122_);}
	.st147{fill:url(#SVGID_123_);}
	.st148{fill:url(#SVGID_124_);}
	.st149{fill:url(#SVGID_125_);}
	.st150{fill:url(#SVGID_126_);}
	.st151{fill:url(#SVGID_127_);}
	.st152{fill:url(#SVGID_128_);}
	.st153{fill:url(#SVGID_129_);}
	.st154{fill:url(#SVGID_130_);}
	.st155{fill:url(#SVGID_131_);}
	.st156{fill:url(#SVGID_132_);}
	.st157{fill:url(#SVGID_133_);}
	.st158{fill:url(#SVGID_134_);}
	.st159{fill:url(#SVGID_135_);}
	.st160{fill:url(#SVGID_136_);}
	.st161{fill:url(#SVGID_137_);}
	.st162{fill:url(#SVGID_138_);}
	.st163{fill:url(#SVGID_139_);}
	.st164{fill:url(#SVGID_140_);}
	.st165{fill:url(#SVGID_141_);}
	.st166{fill:url(#SVGID_142_);}
	.st167{fill:url(#SVGID_143_);}
	.st168{fill:url(#SVGID_144_);}
	.st169{fill:url(#SVGID_145_);}
	.st170{fill:url(#SVGID_146_);}
	.st171{fill:url(#SVGID_147_);}
	.st172{fill:url(#SVGID_148_);}
	.st173{fill:url(#SVGID_149_);}
	.st174{fill:url(#SVGID_150_);}
	.st175{fill:url(#SVGID_151_);}
	.st176{fill:url(#SVGID_152_);}
	.st177{fill:none;stroke:url(#SVGID_153_);stroke-width:0.75;stroke-miterlimit:10;}
	.st178{fill:url(#SVGID_154_);}
	.st179{opacity:0.6;}
	.st180{fill:url(#SVGID_155_);}
	.st181{fill:url(#SVGID_156_);}
	.st182{fill:none;stroke:#000000;stroke-miterlimit:10;}
	.st183{fill:url(#SVGID_157_);}
	.st184{fill:url(#SVGID_158_);}
	.st185{fill:url(#SVGID_159_);}
	.st186{fill:url(#SVGID_160_);}
	.st187{fill:url(#SVGID_161_);}
	.st188{fill:url(#SVGID_162_);}
	.st189{fill:url(#SVGID_163_);}
	.st190{fill:url(#SVGID_164_);}
	.st191{fill:url(#SVGID_165_);}
	.st192{fill:url(#SVGID_166_);}
	.st193{fill:url(#SVGID_167_);}
	.st194{fill:url(#SVGID_168_);}
	.st195{fill:url(#SVGID_169_);}
	.st196{fill:url(#SVGID_170_);}
	.st197{fill:url(#SVGID_171_);}
	.st198{fill:url(#SVGID_172_);}
	.st199{fill:url(#SVGID_173_);}
	.st200{fill:url(#SVGID_174_);}
	.st201{fill:url(#SVGID_175_);}
	.st202{fill:url(#SVGID_176_);}
	.st203{fill:url(#SVGID_177_);}
	.st204{fill:url(#SVGID_178_);}
	.st205{fill:url(#SVGID_179_);}
	.st206{fill:url(#SVGID_180_);}
	.st207{fill:url(#SVGID_181_);}
	.st208{fill:url(#SVGID_182_);}
	.st209{fill:url(#SVGID_183_);}
	.st210{fill:url(#SVGID_184_);}
	.st211{fill:url(#SVGID_185_);}
	.st212{fill:url(#SVGID_186_);}
	.st213{fill:url(#SVGID_187_);}
	.st214{fill:url(#SVGID_188_);}
	.st215{fill:url(#SVGID_189_);}
	.st216{fill:url(#SVGID_190_);}
	.st217{fill:url(#SVGID_191_);}
	.st218{fill:url(#SVGID_192_);}
	.st219{fill:url(#SVGID_193_);}
	.st220{fill:url(#SVGID_194_);}
	.st221{fill:url(#SVGID_195_);}
	.st222{fill:url(#SVGID_196_);}
	.st223{fill:url(#SVGID_197_);}
	.st224{fill:url(#SVGID_198_);}
	.st225{fill:url(#SVGID_199_);}
	.st226{fill:url(#SVGID_200_);}
	.st227{fill:url(#SVGID_201_);}
	.st228{fill:url(#SVGID_202_);}
	.st229{fill:url(#SVGID_203_);}
	.st230{fill:url(#SVGID_204_);}
	.st231{fill:none;stroke:#212121;stroke-width:0.5;stroke-miterlimit:10;}
	.st232{fill:url(#SVGID_205_);}
	.st233{fill:none;stroke:url(#SVGID_206_);stroke-width:2;stroke-linecap:round;stroke-miterlimit:10;}
	.st234{fill:none;stroke:url(#SVGID_207_);stroke-width:2;stroke-linecap:round;stroke-miterlimit:10;}
	.st235{fill:none;stroke:url(#SVGID_208_);stroke-width:2;stroke-linecap:round;stroke-miterlimit:10;}
	.st236{fill:none;stroke:url(#SVGID_209_);stroke-width:2;stroke-linecap:round;stroke-miterlimit:10;}
	.st237{fill:none;stroke:url(#SVGID_210_);stroke-width:2;stroke-linecap:round;stroke-miterlimit:10;}
	.st238{fill:url(#SVGID_211_);}
	.st239{fill:url(#SVGID_212_);}
	.st240{fill:url(#SVGID_213_);}
	.st241{fill:url(#SVGID_214_);}
	.st242{fill:url(#SVGID_215_);}
	.st243{fill:url(#SVGID_216_);}
	.st244{fill:url(#SVGID_217_);}
	.st245{fill:url(#SVGID_218_);}
	.st246{fill:url(#SVGID_219_);}
	.st247{fill:url(#SVGID_220_);}
	.st248{fill:url(#SVGID_221_);}
	.st249{fill:url(#SVGID_222_);}
	.st250{fill:url(#SVGID_223_);}
	.st251{fill:url(#SVGID_224_);}
	.st252{fill:url(#SVGID_225_);}
	.st253{fill:url(#SVGID_226_);}
	.st254{fill:url(#SVGID_227_);}
	.st255{fill:url(#SVGID_228_);}
	.st256{fill:url(#SVGID_229_);}
	.st257{fill:url(#SVGID_230_);}
	.st258{fill:url(#SVGID_231_);}
	.st259{fill:url(#SVGID_232_);}
	.st260{fill:url(#SVGID_233_);}
	.st261{fill:url(#SVGID_234_);}
	.st262{fill:none;stroke:#FFFFFF;stroke-miterlimit:10;}
	.st263{fill:#15663B;}
	.st264{fill:#D4263E;}
	.st265{fill:#69A6D9;}
	.st266{fill:#F4B31A;}
	.st267{fill:#803119;}
	.st268{fill:#2D328F;}
	.st269{fill:#E81D2A;}
	.st270{fill:#E71F2B;}
	.st271{fill:#EC1C24;}
	.st272{fill:#959EA8;}
	.st273{fill:#E23725;}
	.st274{fill:#FCDC2E;}
	.st275{fill:#2E3793;}
	.st276{fill:#E91D2A;}
	.st277{fill:#231F20;}
	.st278{fill:#FFCD2A;}
	.st279{fill:#E12225;}
	.st280{fill:#1C9146;}
	.st281{fill:#F69344;}
	.st282{fill:#332E7A;}
	.st283{fill:#CF232F;}
	.st284{fill:#009C57;}
	.st285{fill:#CF3641;}
	.st286{fill:#214A9E;}
	.st287{fill:#BC2036;}
	.st288{fill:#00B4CE;}
	.st289{fill:#FFC130;}
	.st290{fill:#EE3E46;}
	.st291{fill:#009FDB;}
	.st292{fill:#AB242E;}
	.st293{fill:#2D4E95;}
	.st294{fill:#EE3E3B;}
	.st295{fill:#292D6D;}
	.st296{fill:#D93729;}
	.st297{fill:#2E4B9F;}
	.st298{fill:#1A7240;}
	.st299{fill:#EC2F43;}
	.st300{fill:#243B80;}
	.st301{fill:#C62338;}
	.st302{fill:#FDC028;}
	.st303{fill:#D71F26;}
	.st304{fill:#BEAF32;}
	.st305{fill:#AC2224;}
	.st306{fill:#BEAE33;}
	.st307{fill:#AB2124;}
	.st308{fill:#0D947A;}
	.st309{fill:#AC1F24;}
	.st310{fill:#AC2024;}
	.st311{fill:#2F63AD;}
	.st312{fill:#C1C2C4;}
	.st313{fill:#EB75AC;}
	.st314{fill:#DD4C50;}
	.st315{fill:#3A57A6;}
	.st316{fill:#C1C2C5;}
	.st317{fill:#FFD18E;}
	.st318{fill:#ED3430;}
	.st319{fill:#2D1B51;}
	.st320{fill:#EB2124;}
	.st321{fill:#2F318F;}
	.st322{fill:#E72525;}
	.st323{fill:#CF232E;}
	.st324{fill:#00AB5C;}
	.st325{fill:#2E307F;}
	.st326{fill:#D12433;}
	.st327{fill:#D12633;}
	.st328{fill:#B02A3D;}
	.st329{fill:#434177;}
	.st330{fill:url(#SVGID_235_);}
	.st331{fill:none;stroke:url(#SVGID_236_);stroke-width:2;stroke-linecap:round;stroke-miterlimit:10;}
	.st332{fill:none;stroke:url(#SVGID_237_);stroke-width:2;stroke-linecap:round;stroke-miterlimit:10;}
	.st333{fill:none;stroke:url(#SVGID_238_);stroke-width:2;stroke-linecap:round;stroke-miterlimit:10;}
	.st334{fill:none;stroke:url(#SVGID_239_);stroke-width:2;stroke-linecap:round;stroke-miterlimit:10;}
	.st335{fill:none;stroke:url(#SVGID_240_);stroke-width:2;stroke-linecap:round;stroke-miterlimit:10;}
	.st336{fill:url(#SVGID_241_);}
	.st337{fill:url(#SVGID_242_);}
	.st338{fill:none;stroke:url(#SVGID_243_);stroke-width:2;stroke-linecap:round;stroke-miterlimit:10;}
	.st339{fill:none;stroke:url(#SVGID_244_);stroke-width:2;stroke-linecap:round;stroke-miterlimit:10;}
	.st340{fill:none;stroke:url(#SVGID_245_);stroke-width:2;stroke-linecap:round;stroke-miterlimit:10;}
	.st341{fill:none;stroke:url(#SVGID_246_);stroke-width:2;stroke-linecap:round;stroke-miterlimit:10;}
	.st342{fill:none;stroke:url(#SVGID_247_);stroke-width:2;stroke-linecap:round;stroke-miterlimit:10;}
	.st343{opacity:0.6;fill:#FFE853;}
	.st344{fill:url(#SVGID_248_);}
	.st345{fill:url(#SVGID_249_);}
	.st346{fill:#444444;}
	.st347{font-family:'DaysOne-Regular';}
	.st348{font-size:21px;}
	.st349{fill:url(#SVGID_250_);}
	.st350{fill:url(#SVGID_251_);}
	.st351{stroke:#000000;stroke-miterlimit:10;}
	.st352{font-family:'Montserrat-Regular';}
	.st353{font-size:18px;}
	.st354{font-family:'Montserrat-SemiBold';}
	.st355{opacity:0.6;fill:#13D4EB;}
	.st356{fill:url(#SVGID_252_);}
	.st357{fill:url(#SVGID_253_);}
	.st358{fill:url(#SVGID_254_);}
	.st359{fill:url(#SVGID_255_);}
	.st360{fill:url(#SVGID_256_);}
	.st361{fill:url(#SVGID_257_);}
	.st362{fill:url(#SVGID_258_);}
	.st363{fill:url(#SVGID_259_);}
	.st364{fill:url(#SVGID_260_);}
	.st365{fill:url(#SVGID_261_);}
	.st366{fill:url(#SVGID_262_);}
	.st367{fill:url(#SVGID_263_);}
	.st368{fill:url(#SVGID_264_);}
	.st369{fill:url(#SVGID_265_);}
	.st370{fill:url(#SVGID_266_);}
	.st371{fill:url(#SVGID_267_);}
	.st372{fill:url(#SVGID_268_);}
	.st373{fill:url(#SVGID_269_);}
	.st374{fill:url(#SVGID_270_);}
	.st375{fill:url(#SVGID_271_);}
	.st376{opacity:0.5;fill:#537838;}
	.st377{fill:url(#SVGID_272_);}
	.st378{fill:url(#SVGID_273_);}
	.st379{fill:url(#SVGID_274_);}
	.st380{fill:url(#SVGID_275_);}
	.st381{fill:url(#SVGID_276_);}
	.st382{fill:url(#SVGID_277_);}
	.st383{fill:url(#SVGID_278_);}
	.st384{fill:url(#SVGID_279_);}
	.st385{fill:url(#SVGID_280_);}
	.st386{fill:url(#SVGID_281_);}
	.st387{opacity:0.6;fill:#E46855;}
	.st388{fill:url(#SVGID_282_);}
	.st389{fill:url(#SVGID_283_);}
	.st390{fill:url(#SVGID_284_);}
	.st391{fill:url(#SVGID_285_);}
	.st392{fill:url(#SVGID_286_);}
	.st393{fill:url(#SVGID_287_);}
	.st394{fill:url(#SVGID_288_);}
	.st395{fill:url(#SVGID_289_);}
	.st396{fill:url(#SVGID_290_);}
	.st397{fill:url(#SVGID_291_);}
	.st398{fill:#515151;}
	.st399{font-size:24px;}
	.st400{font-size:36px;}
</style>
<g id="Layer_1">
</g>
<g id="Layer_2">
	<g>
		<g>
			<circle class="st343" cx="1699" cy="190.7" r="15.1"/>
			<circle class="st24" cx="1699" cy="190.7" r="12.1"/>
			<linearGradient id="SVGID_1_" gradientUnits="userSpaceOnUse" x1="1628.4432" y1="190.7094" x2="1682.546" y2="190.7094">
				<stop  offset="7.831743e-03" style="stop-color:#D2D2D2"/>
				<stop  offset="9.698276e-02" style="stop-color:#D6D6D6"/>
			</linearGradient>
			<path class="st2" d="M1679.5,205.4h-48.1c-1.7,0-3-1.3-3-3V179c0-1.7,1.3-3,3-3h48.1c1.7,0,3,1.3,3,3v23.4
				C1682.5,204.1,1681.2,205.4,1679.5,205.4z"/>
			<linearGradient id="SVGID_2_" gradientUnits="userSpaceOnUse" x1="1715.1182" y1="190.481" x2="1769.2209" y2="190.481">
				<stop  offset="7.831743e-03" style="stop-color:#D2D2D2"/>
				<stop  offset="9.698276e-02" style="stop-color:#D6D6D6"/>
			</linearGradient>
			<path style="fill:url(#SVGID_2_);" d="M1766.2,205.2h-48.1c-1.7,0-3-1.3-3-3v-23.4c0-1.7,1.3-3,3-3h48.1c1.7,0,3,1.3,3,3v23.4
				C1769.2,203.8,1767.9,205.2,1766.2,205.2z"/>
			<circle class="st0" cx="1698.5" cy="190.5" r="2.6"/>
		</g>
		<text transform="matrix(1 0 0 1 777.4819 132.7046)" class="st346 st347 st348">Commercial</text>
		<text transform="matrix(1 0 0 1 777.4819 196.7047)" class="st346 st347 st348">Government</text>
		<text transform="matrix(1 0 0 1 777.4819 259.7047)" class="st346 st347 st348">Military</text>
		<text transform="matrix(1 0 0 1 777.4819 322.7047)" class="st346 st347 st348">Civil</text>
		<g class="st179">
			
				<image style="overflow:visible;opacity:0.2;" width="170" height="171" xlink:href="5537BB4AA4035099.png"  transform="matrix(1 0 0 1 325.2466 87.8133)">
			</image>
			<g>
				<circle class="st32" cx="408.1" cy="171.4" r="54.8"/>
			</g>
		</g>
		<circle class="st32" cx="408.1" cy="171.4" r="43.9"/>
		<g>
			
				<image style="overflow:visible;opacity:0.2;" width="258" height="167" xlink:href="5537BB4AA403509B.png"  transform="matrix(1 0 0 1 124.2466 89.8133)">
			</image>
			<g>
				<linearGradient id="SVGID_3_" gradientUnits="userSpaceOnUse" x1="153.2446" y1="171.449" x2="349.4202" y2="171.449">
					<stop  offset="7.831743e-03" style="stop-color:#D2D2D2"/>
					<stop  offset="9.698276e-02" style="stop-color:#D6D6D6"/>
				</linearGradient>
				<path style="fill:url(#SVGID_3_);" d="M339.4,224.8H163.2c-5.5,0-10-4.5-10-10v-86.7c0-5.5,4.5-10,10-10h176.2
					c5.5,0,10,4.5,10,10v86.7C349.4,220.3,344.9,224.8,339.4,224.8z"/>
			</g>
		</g>
		<g>
			<rect x="224.3" y="118.1" class="st0" width="16" height="106.7"/>
			<rect x="262.3" y="118.1" class="st0" width="16" height="106.7"/>
		</g>
		<g>
			
				<image style="overflow:visible;opacity:0.2;" width="257" height="167" xlink:href="5537BB4AA403509E.png"  transform="matrix(1 0 0 1 439.2466 89.8133)">
			</image>
			<g>
				<linearGradient id="SVGID_4_" gradientUnits="userSpaceOnUse" x1="467.5259" y1="171.449" x2="663.7015" y2="171.449">
					<stop  offset="7.831743e-03" style="stop-color:#D2D2D2"/>
					<stop  offset="9.698276e-02" style="stop-color:#D6D6D6"/>
				</linearGradient>
				<path style="fill:url(#SVGID_4_);" d="M653.7,224.8H477.5c-5.5,0-10-4.5-10-10v-86.7c0-5.5,4.5-10,10-10h176.2
					c5.5,0,10,4.5,10,10v86.7C663.7,220.3,659.2,224.8,653.7,224.8z"/>
			</g>
		</g>
		<g>
			<rect x="538.6" y="118.1" class="st0" width="16" height="106.7"/>
			<rect x="576.6" y="118.1" class="st0" width="16" height="106.7"/>
		</g>
		<line class="st351" x1="232.2" y1="73.7" x2="232.2" y2="117.7"/>
		<line class="st351" x1="270.7" y1="73.7" x2="270.7" y2="117.7"/>
		<line class="st351" x1="408.7" y1="73.7" x2="408.7" y2="117.7"/>
		<line class="st351" x1="546.2" y1="73.7" x2="546.2" y2="117.7"/>
		<line class="st351" x1="584.7" y1="73.7" x2="584.7" y2="117.7"/>
		<text transform="matrix(1 0 0 1 165.6812 64.0221)"><tspan x="0" y="0" class="st352 st353">since </tspan><tspan x="51.6" y="0" class="st354 st353">70s</tspan></text>
		<text transform="matrix(1 0 0 1 266.6812 64.0221)" class="st354 st353">80s</text>
		<text transform="matrix(1 0 0 1 539.6812 64.0221)" class="st354 st353">90s</text>
		<text transform="matrix(1 0 0 1 584.6812 64.0221)" class="st354 st353">2000s</text>
		<text transform="matrix(1 0 0 1 345.6812 64.0221)" class="st347 st353">Use of Satellite </text>
		<g>
			<circle class="st355" cx="1021.7" cy="131.3" r="15.1"/>
			<circle class="st32" cx="1021.7" cy="131.3" r="12.1"/>
			<linearGradient id="SVGID_5_" gradientUnits="userSpaceOnUse" x1="951.4432" y1="131.2527" x2="1005.5461" y2="131.2527">
				<stop  offset="7.831743e-03" style="stop-color:#D2D2D2"/>
				<stop  offset="9.698276e-02" style="stop-color:#D6D6D6"/>
			</linearGradient>
			<path style="fill:url(#SVGID_5_);" d="M1002.5,146h-48.1c-1.7,0-3-1.3-3-3v-23.4c0-1.7,1.3-3,3-3h48.1c1.7,0,3,1.3,3,3V143
				C1005.5,144.6,1004.2,146,1002.5,146z"/>
			<g>
				<rect x="971" y="116.5" class="st0" width="4.4" height="29.4"/>
				<rect x="981.5" y="116.5" class="st0" width="4.4" height="29.4"/>
			</g>
			<linearGradient id="SVGID_6_" gradientUnits="userSpaceOnUse" x1="1038.1182" y1="131.2527" x2="1092.2209" y2="131.2527">
				<stop  offset="7.831743e-03" style="stop-color:#D2D2D2"/>
				<stop  offset="9.698276e-02" style="stop-color:#D6D6D6"/>
			</linearGradient>
			<path style="fill:url(#SVGID_6_);" d="M1089.2,146h-48.1c-1.7,0-3-1.3-3-3v-23.4c0-1.7,1.3-3,3-3h48.1c1.7,0,3,1.3,3,3V143
				C1092.2,144.6,1090.9,146,1089.2,146z"/>
			<g>
				<rect x="1057.7" y="116.5" class="st0" width="4.4" height="29.4"/>
				<rect x="1068.2" y="116.5" class="st0" width="4.4" height="29.4"/>
			</g>
			<circle class="st0" cx="1021.7" cy="131.3" r="2.6"/>
		</g>
		<g>
			<circle class="st355" cx="1190.7" cy="131.3" r="15.1"/>
			<circle class="st32" cx="1190.7" cy="131.3" r="12.1"/>
			<linearGradient id="SVGID_7_" gradientUnits="userSpaceOnUse" x1="1120.4432" y1="131.2527" x2="1174.546" y2="131.2527">
				<stop  offset="7.831743e-03" style="stop-color:#D2D2D2"/>
				<stop  offset="9.698276e-02" style="stop-color:#D6D6D6"/>
			</linearGradient>
			<path class="st8" d="M1171.5,146h-48.1c-1.7,0-3-1.3-3-3v-23.4c0-1.7,1.3-3,3-3h48.1c1.7,0,3,1.3,3,3V143
				C1174.5,144.6,1173.2,146,1171.5,146z"/>
			<rect x="1150.5" y="116.5" class="st0" width="4.4" height="29.4"/>
			<linearGradient id="SVGID_8_" gradientUnits="userSpaceOnUse" x1="1207.1182" y1="131.2527" x2="1261.2209" y2="131.2527">
				<stop  offset="7.831743e-03" style="stop-color:#D2D2D2"/>
				<stop  offset="9.698276e-02" style="stop-color:#D6D6D6"/>
			</linearGradient>
			<path style="fill:url(#SVGID_8_);" d="M1258.2,146h-48.1c-1.7,0-3-1.3-3-3v-23.4c0-1.7,1.3-3,3-3h48.1c1.7,0,3,1.3,3,3V143
				C1261.2,144.6,1259.9,146,1258.2,146z"/>
			<rect x="1226.7" y="116.5" class="st0" width="4.4" height="29.4"/>
			<rect x="1237.2" y="116.5" class="st0" width="4.4" height="29.4"/>
			<circle class="st0" cx="1190.7" cy="131.3" r="2.6"/>
		</g>
		<g>
			<circle class="st355" cx="1359.7" cy="131.3" r="15.1"/>
			<circle class="st32" cx="1359.7" cy="131.3" r="12.1"/>
			<linearGradient id="SVGID_9_" gradientUnits="userSpaceOnUse" x1="1289.4432" y1="131.2527" x2="1343.546" y2="131.2527">
				<stop  offset="7.831743e-03" style="stop-color:#D2D2D2"/>
				<stop  offset="9.698276e-02" style="stop-color:#D6D6D6"/>
			</linearGradient>
			<path style="fill:url(#SVGID_9_);" d="M1340.5,146h-48.1c-1.7,0-3-1.3-3-3v-23.4c0-1.7,1.3-3,3-3h48.1c1.7,0,3,1.3,3,3V143
				C1343.5,144.6,1342.2,146,1340.5,146z"/>
			<linearGradient id="SVGID_10_" gradientUnits="userSpaceOnUse" x1="1376.1182" y1="131.2527" x2="1430.2209" y2="131.2527">
				<stop  offset="7.831743e-03" style="stop-color:#D2D2D2"/>
				<stop  offset="9.698276e-02" style="stop-color:#D6D6D6"/>
			</linearGradient>
			<path style="fill:url(#SVGID_10_);" d="M1427.2,146h-48.1c-1.7,0-3-1.3-3-3v-23.4c0-1.7,1.3-3,3-3h48.1c1.7,0,3,1.3,3,3V143
				C1430.2,144.6,1428.9,146,1427.2,146z"/>
			<g>
				<rect x="1395.7" y="116.5" class="st0" width="4.4" height="29.4"/>
				<rect x="1406.2" y="116.5" class="st0" width="4.4" height="29.4"/>
			</g>
			<circle class="st0" cx="1359.7" cy="131.3" r="2.6"/>
		</g>
		<g>
			<circle class="st355" cx="1527.7" cy="131.3" r="15.1"/>
			<circle class="st32" cx="1527.7" cy="131.3" r="12.1"/>
			<linearGradient id="SVGID_11_" gradientUnits="userSpaceOnUse" x1="1457.4432" y1="131.2527" x2="1511.546" y2="131.2527">
				<stop  offset="7.831743e-03" style="stop-color:#D2D2D2"/>
				<stop  offset="9.698276e-02" style="stop-color:#D6D6D6"/>
			</linearGradient>
			<path style="fill:url(#SVGID_11_);" d="M1508.5,146h-48.1c-1.7,0-3-1.3-3-3v-23.4c0-1.7,1.3-3,3-3h48.1c1.7,0,3,1.3,3,3V143
				C1511.5,144.6,1510.2,146,1508.5,146z"/>
			<linearGradient id="SVGID_12_" gradientUnits="userSpaceOnUse" x1="1544.1182" y1="131.2527" x2="1598.2209" y2="131.2527">
				<stop  offset="7.831743e-03" style="stop-color:#D2D2D2"/>
				<stop  offset="9.698276e-02" style="stop-color:#D6D6D6"/>
			</linearGradient>
			<path style="fill:url(#SVGID_12_);" d="M1595.2,146h-48.1c-1.7,0-3-1.3-3-3v-23.4c0-1.7,1.3-3,3-3h48.1c1.7,0,3,1.3,3,3V143
				C1598.2,144.6,1596.9,146,1595.2,146z"/>
			<g>
				<rect x="1574.2" y="116.5" class="st0" width="4.4" height="29.4"/>
			</g>
		</g>
		<circle class="st0" cx="1527.7" cy="131.3" r="2.6"/>
		<g>
			<circle class="st355" cx="1698.7" cy="131.3" r="15.1"/>
			<circle class="st32" cx="1698.7" cy="131.3" r="12.1"/>
			<linearGradient id="SVGID_13_" gradientUnits="userSpaceOnUse" x1="1628.4432" y1="131.2527" x2="1682.546" y2="131.2527">
				<stop  offset="7.831743e-03" style="stop-color:#D2D2D2"/>
				<stop  offset="9.698276e-02" style="stop-color:#D6D6D6"/>
			</linearGradient>
			<path class="st14" d="M1679.5,146h-48.1c-1.7,0-3-1.3-3-3v-23.4c0-1.7,1.3-3,3-3h48.1c1.7,0,3,1.3,3,3V143
				C1682.5,144.6,1681.2,146,1679.5,146z"/>
			<linearGradient id="SVGID_14_" gradientUnits="userSpaceOnUse" x1="1715.1182" y1="131.2527" x2="1769.2209" y2="131.2527">
				<stop  offset="7.831743e-03" style="stop-color:#D2D2D2"/>
				<stop  offset="9.698276e-02" style="stop-color:#D6D6D6"/>
			</linearGradient>
			<path style="fill:url(#SVGID_14_);" d="M1766.2,146h-48.1c-1.7,0-3-1.3-3-3v-23.4c0-1.7,1.3-3,3-3h48.1c1.7,0,3,1.3,3,3V143
				C1769.2,144.6,1767.9,146,1766.2,146z"/>
			<circle class="st0" cx="1698.7" cy="131.3" r="2.6"/>
		</g>
		<g>
			<circle class="st343" cx="1022" cy="190.7" r="15.1"/>
			<circle class="st24" cx="1022" cy="190.7" r="12.1"/>
			<linearGradient id="SVGID_15_" gradientUnits="userSpaceOnUse" x1="951.4432" y1="190.7094" x2="1005.5461" y2="190.7094">
				<stop  offset="7.831743e-03" style="stop-color:#D2D2D2"/>
				<stop  offset="9.698276e-02" style="stop-color:#D6D6D6"/>
			</linearGradient>
			<path style="fill:url(#SVGID_15_);" d="M1002.5,205.4h-48.1c-1.7,0-3-1.3-3-3V179c0-1.7,1.3-3,3-3h48.1c1.7,0,3,1.3,3,3v23.4
				C1005.5,204.1,1004.2,205.4,1002.5,205.4z"/>
			<rect x="971" y="176" class="st0" width="4.4" height="29.4"/>
			<rect x="981.5" y="176" class="st0" width="4.4" height="29.4"/>
			<linearGradient id="SVGID_16_" gradientUnits="userSpaceOnUse" x1="1038.1182" y1="190.7094" x2="1092.2209" y2="190.7094">
				<stop  offset="7.831743e-03" style="stop-color:#D2D2D2"/>
				<stop  offset="9.698276e-02" style="stop-color:#D6D6D6"/>
			</linearGradient>
			<path style="fill:url(#SVGID_16_);" d="M1089.2,205.4h-48.1c-1.7,0-3-1.3-3-3V179c0-1.7,1.3-3,3-3h48.1c1.7,0,3,1.3,3,3v23.4
				C1092.2,204.1,1090.9,205.4,1089.2,205.4z"/>
			<rect x="1057.7" y="176" class="st0" width="4.4" height="29.4"/>
			<rect x="1068.2" y="176" class="st0" width="4.4" height="29.4"/>
			<circle class="st0" cx="1022.5" cy="190.5" r="2.6"/>
		</g>
		<circle class="st343" cx="1191" cy="190.7" r="15.1"/>
		<circle class="st24" cx="1191" cy="190.7" r="12.1"/>
		<linearGradient id="SVGID_17_" gradientUnits="userSpaceOnUse" x1="1120.4432" y1="190.7094" x2="1174.546" y2="190.7094">
			<stop  offset="7.831743e-03" style="stop-color:#D2D2D2"/>
			<stop  offset="9.698276e-02" style="stop-color:#D6D6D6"/>
		</linearGradient>
		<path style="fill:url(#SVGID_17_);" d="M1171.5,205.4h-48.1c-1.7,0-3-1.3-3-3V179c0-1.7,1.3-3,3-3h48.1c1.7,0,3,1.3,3,3v23.4
			C1174.5,204.1,1173.2,205.4,1171.5,205.4z"/>
		<rect x="1150.5" y="176" class="st0" width="4.4" height="29.4"/>
		<linearGradient id="SVGID_18_" gradientUnits="userSpaceOnUse" x1="1207.1182" y1="190.7094" x2="1261.2209" y2="190.7094">
			<stop  offset="7.831743e-03" style="stop-color:#D2D2D2"/>
			<stop  offset="9.698276e-02" style="stop-color:#D6D6D6"/>
		</linearGradient>
		<path style="fill:url(#SVGID_18_);" d="M1258.2,205.4h-48.1c-1.7,0-3-1.3-3-3V179c0-1.7,1.3-3,3-3h48.1c1.7,0,3,1.3,3,3v23.4
			C1261.2,204.1,1259.9,205.4,1258.2,205.4z"/>
		<rect x="1226.7" y="176" class="st0" width="4.4" height="29.4"/>
		<rect x="1237.2" y="176" class="st0" width="4.4" height="29.4"/>
		<circle class="st0" cx="1191.5" cy="190.5" r="2.6"/>
		<circle class="st343" cx="1357" cy="190.7" r="15.1"/>
		<circle class="st24" cx="1357" cy="190.7" r="12.1"/>
		<linearGradient id="SVGID_19_" gradientUnits="userSpaceOnUse" x1="1286.4432" y1="190.7094" x2="1340.546" y2="190.7094">
			<stop  offset="7.831743e-03" style="stop-color:#D2D2D2"/>
			<stop  offset="9.698276e-02" style="stop-color:#D6D6D6"/>
		</linearGradient>
		<path class="st25" d="M1337.5,205.4h-48.1c-1.7,0-3-1.3-3-3V179c0-1.7,1.3-3,3-3h48.1c1.7,0,3,1.3,3,3v23.4
			C1340.5,204.1,1339.2,205.4,1337.5,205.4z"/>
		<linearGradient id="SVGID_20_" gradientUnits="userSpaceOnUse" x1="1373.1182" y1="190.7094" x2="1427.2209" y2="190.7094">
			<stop  offset="7.831743e-03" style="stop-color:#D2D2D2"/>
			<stop  offset="9.698276e-02" style="stop-color:#D6D6D6"/>
		</linearGradient>
		<path class="st26" d="M1424.2,205.4h-48.1c-1.7,0-3-1.3-3-3V179c0-1.7,1.3-3,3-3h48.1c1.7,0,3,1.3,3,3v23.4
			C1427.2,204.1,1425.9,205.4,1424.2,205.4z"/>
		<rect x="1392.7" y="176" class="st0" width="4.4" height="29.4"/>
		<rect x="1403.2" y="176" class="st0" width="4.4" height="29.4"/>
		<circle class="st0" cx="1357.5" cy="190.5" r="2.6"/>
		<circle class="st343" cx="1526" cy="190.7" r="15.1"/>
		<circle class="st24" cx="1526" cy="190.7" r="12.1"/>
		<linearGradient id="SVGID_21_" gradientUnits="userSpaceOnUse" x1="1455.4432" y1="190.7094" x2="1509.546" y2="190.7094">
			<stop  offset="7.831743e-03" style="stop-color:#D2D2D2"/>
			<stop  offset="9.698276e-02" style="stop-color:#D6D6D6"/>
		</linearGradient>
		<path class="st28" d="M1506.5,205.4h-48.1c-1.7,0-3-1.3-3-3V179c0-1.7,1.3-3,3-3h48.1c1.7,0,3,1.3,3,3v23.4
			C1509.5,204.1,1508.2,205.4,1506.5,205.4z"/>
		<linearGradient id="SVGID_22_" gradientUnits="userSpaceOnUse" x1="1542.1182" y1="190.7094" x2="1596.2209" y2="190.7094">
			<stop  offset="7.831743e-03" style="stop-color:#D2D2D2"/>
			<stop  offset="9.698276e-02" style="stop-color:#D6D6D6"/>
		</linearGradient>
		<path style="fill:url(#SVGID_22_);" d="M1593.2,205.4h-48.1c-1.7,0-3-1.3-3-3V179c0-1.7,1.3-3,3-3h48.1c1.7,0,3,1.3,3,3v23.4
			C1596.2,204.1,1594.9,205.4,1593.2,205.4z"/>
		<rect x="1572.2" y="176" class="st0" width="4.4" height="29.4"/>
		<circle class="st0" cx="1526.5" cy="190.5" r="2.6"/>
		<g>
			<circle class="st343" cx="1699" cy="190.7" r="15.1"/>
			<circle class="st24" cx="1699" cy="190.7" r="12.1"/>
			<linearGradient id="SVGID_23_" gradientUnits="userSpaceOnUse" x1="1628.4432" y1="190.7094" x2="1682.546" y2="190.7094">
				<stop  offset="7.831743e-03" style="stop-color:#D2D2D2"/>
				<stop  offset="9.698276e-02" style="stop-color:#D6D6D6"/>
			</linearGradient>
			<path style="fill:url(#SVGID_23_);" d="M1679.5,205.4h-48.1c-1.7,0-3-1.3-3-3V179c0-1.7,1.3-3,3-3h48.1c1.7,0,3,1.3,3,3v23.4
				C1682.5,204.1,1681.2,205.4,1679.5,205.4z"/>
			<linearGradient id="SVGID_24_" gradientUnits="userSpaceOnUse" x1="1715.1182" y1="190.481" x2="1769.2209" y2="190.481">
				<stop  offset="7.831743e-03" style="stop-color:#D2D2D2"/>
				<stop  offset="9.698276e-02" style="stop-color:#D6D6D6"/>
			</linearGradient>
			<path class="st35" d="M1766.2,205.2h-48.1c-1.7,0-3-1.3-3-3v-23.4c0-1.7,1.3-3,3-3h48.1c1.7,0,3,1.3,3,3v23.4
				C1769.2,203.8,1767.9,205.2,1766.2,205.2z"/>
			<circle class="st0" cx="1698.5" cy="190.5" r="2.6"/>
		</g>
		<g>
			<circle class="st376" cx="1022" cy="249.8" r="15.1"/>
			<circle class="st33" cx="1022" cy="249.8" r="12.1"/>
			<linearGradient id="SVGID_25_" gradientUnits="userSpaceOnUse" x1="951.4432" y1="249.7746" x2="1005.5461" y2="249.7746">
				<stop  offset="7.831743e-03" style="stop-color:#D2D2D2"/>
				<stop  offset="9.698276e-02" style="stop-color:#D6D6D6"/>
			</linearGradient>
			<path class="st36" d="M1002.5,264.5h-48.1c-1.7,0-3-1.3-3-3v-23.4c0-1.7,1.3-3,3-3h48.1c1.7,0,3,1.3,3,3v23.4
				C1005.5,263.1,1004.2,264.5,1002.5,264.5z"/>
			<rect x="971" y="235.1" class="st0" width="4.4" height="29.4"/>
			<rect x="981.5" y="235.1" class="st0" width="4.4" height="29.4"/>
			<linearGradient id="SVGID_26_" gradientUnits="userSpaceOnUse" x1="1038.1182" y1="249.7746" x2="1092.2209" y2="249.7746">
				<stop  offset="7.831743e-03" style="stop-color:#D2D2D2"/>
				<stop  offset="9.698276e-02" style="stop-color:#D6D6D6"/>
			</linearGradient>
			<path class="st37" d="M1089.2,264.5h-48.1c-1.7,0-3-1.3-3-3v-23.4c0-1.7,1.3-3,3-3h48.1c1.7,0,3,1.3,3,3v23.4
				C1092.2,263.1,1090.9,264.5,1089.2,264.5z"/>
			<rect x="1057.7" y="235.1" class="st0" width="4.4" height="29.4"/>
			<rect x="1068.2" y="235.1" class="st0" width="4.4" height="29.4"/>
			<circle class="st0" cx="1021.8" cy="250.1" r="2.6"/>
		</g>
		<g>
			<circle class="st376" cx="1191" cy="249.8" r="15.1"/>
			<circle class="st33" cx="1191" cy="249.8" r="12.1"/>
			<linearGradient id="SVGID_27_" gradientUnits="userSpaceOnUse" x1="1120.4432" y1="249.7746" x2="1174.546" y2="249.7746">
				<stop  offset="7.831743e-03" style="stop-color:#D2D2D2"/>
				<stop  offset="9.698276e-02" style="stop-color:#D6D6D6"/>
			</linearGradient>
			<path class="st38" d="M1171.5,264.5h-48.1c-1.7,0-3-1.3-3-3v-23.4c0-1.7,1.3-3,3-3h48.1c1.7,0,3,1.3,3,3v23.4
				C1174.5,263.1,1173.2,264.5,1171.5,264.5z"/>
			<rect x="1150.5" y="235.1" class="st0" width="4.4" height="29.4"/>
			<linearGradient id="SVGID_28_" gradientUnits="userSpaceOnUse" x1="1207.1182" y1="249.7746" x2="1261.2209" y2="249.7746">
				<stop  offset="7.831743e-03" style="stop-color:#D2D2D2"/>
				<stop  offset="9.698276e-02" style="stop-color:#D6D6D6"/>
			</linearGradient>
			<path class="st39" d="M1258.2,264.5h-48.1c-1.7,0-3-1.3-3-3v-23.4c0-1.7,1.3-3,3-3h48.1c1.7,0,3,1.3,3,3v23.4
				C1261.2,263.1,1259.9,264.5,1258.2,264.5z"/>
			<rect x="1226.7" y="235.1" class="st0" width="4.4" height="29.4"/>
			<rect x="1237.2" y="235.1" class="st0" width="4.4" height="29.4"/>
			<circle class="st0" cx="1190.8" cy="250.1" r="2.6"/>
		</g>
		<g>
			<circle class="st376" cx="1357" cy="249.8" r="15.1"/>
			<circle class="st33" cx="1357" cy="249.8" r="12.1"/>
			<linearGradient id="SVGID_29_" gradientUnits="userSpaceOnUse" x1="1286.4432" y1="249.7746" x2="1340.546" y2="249.7746">
				<stop  offset="7.831743e-03" style="stop-color:#D2D2D2"/>
				<stop  offset="9.698276e-02" style="stop-color:#D6D6D6"/>
			</linearGradient>
			<path class="st40" d="M1337.5,264.5h-48.1c-1.7,0-3-1.3-3-3v-23.4c0-1.7,1.3-3,3-3h48.1c1.7,0,3,1.3,3,3v23.4
				C1340.5,263.1,1339.2,264.5,1337.5,264.5z"/>
			<linearGradient id="SVGID_30_" gradientUnits="userSpaceOnUse" x1="1373.1182" y1="249.7746" x2="1427.2209" y2="249.7746">
				<stop  offset="7.831743e-03" style="stop-color:#D2D2D2"/>
				<stop  offset="9.698276e-02" style="stop-color:#D6D6D6"/>
			</linearGradient>
			<path class="st41" d="M1424.2,264.5h-48.1c-1.7,0-3-1.3-3-3v-23.4c0-1.7,1.3-3,3-3h48.1c1.7,0,3,1.3,3,3v23.4
				C1427.2,263.1,1425.9,264.5,1424.2,264.5z"/>
			<rect x="1392.7" y="235.1" class="st0" width="4.4" height="29.4"/>
			<rect x="1403.2" y="235.1" class="st0" width="4.4" height="29.4"/>
			<circle class="st0" cx="1356.8" cy="250.1" r="2.6"/>
		</g>
		<g>
			<circle class="st376" cx="1526" cy="249.8" r="15.1"/>
			<circle class="st33" cx="1526" cy="249.8" r="12.1"/>
			<linearGradient id="SVGID_31_" gradientUnits="userSpaceOnUse" x1="1455.4432" y1="249.7746" x2="1509.546" y2="249.7746">
				<stop  offset="7.831743e-03" style="stop-color:#D2D2D2"/>
				<stop  offset="9.698276e-02" style="stop-color:#D6D6D6"/>
			</linearGradient>
			<path class="st42" d="M1506.5,264.5h-48.1c-1.7,0-3-1.3-3-3v-23.4c0-1.7,1.3-3,3-3h48.1c1.7,0,3,1.3,3,3v23.4
				C1509.5,263.1,1508.2,264.5,1506.5,264.5z"/>
			<linearGradient id="SVGID_32_" gradientUnits="userSpaceOnUse" x1="1542.1182" y1="249.7746" x2="1596.2209" y2="249.7746">
				<stop  offset="7.831743e-03" style="stop-color:#D2D2D2"/>
				<stop  offset="9.698276e-02" style="stop-color:#D6D6D6"/>
			</linearGradient>
			<path class="st43" d="M1593.2,264.5h-48.1c-1.7,0-3-1.3-3-3v-23.4c0-1.7,1.3-3,3-3h48.1c1.7,0,3,1.3,3,3v23.4
				C1596.2,263.1,1594.9,264.5,1593.2,264.5z"/>
			<rect x="1572.2" y="235.1" class="st0" width="4.4" height="29.4"/>
			<circle class="st0" cx="1525.8" cy="250.1" r="2.6"/>
		</g>
		<g>
			<circle class="st376" cx="1699" cy="249.8" r="15.1"/>
			<circle class="st33" cx="1699" cy="249.8" r="12.1"/>
			<linearGradient id="SVGID_33_" gradientUnits="userSpaceOnUse" x1="1628.4432" y1="249.7746" x2="1682.546" y2="249.7746">
				<stop  offset="7.831743e-03" style="stop-color:#D2D2D2"/>
				<stop  offset="9.698276e-02" style="stop-color:#D6D6D6"/>
			</linearGradient>
			<path class="st44" d="M1679.5,264.5h-48.1c-1.7,0-3-1.3-3-3v-23.4c0-1.7,1.3-3,3-3h48.1c1.7,0,3,1.3,3,3v23.4
				C1682.5,263.1,1681.2,264.5,1679.5,264.5z"/>
			<linearGradient id="SVGID_34_" gradientUnits="userSpaceOnUse" x1="1715.1182" y1="249.7746" x2="1769.2209" y2="249.7746">
				<stop  offset="7.831743e-03" style="stop-color:#D2D2D2"/>
				<stop  offset="9.698276e-02" style="stop-color:#D6D6D6"/>
			</linearGradient>
			<path class="st45" d="M1766.2,264.5h-48.1c-1.7,0-3-1.3-3-3v-23.4c0-1.7,1.3-3,3-3h48.1c1.7,0,3,1.3,3,3v23.4
				C1769.2,263.1,1767.9,264.5,1766.2,264.5z"/>
			<circle class="st0" cx="1698.8" cy="250.1" r="2.6"/>
		</g>
		<g>
			<g>
				<circle class="st387" cx="1022" cy="311.7" r="15.1"/>
				<circle class="st34" cx="1022" cy="311.7" r="12.1"/>
				<linearGradient id="SVGID_35_" gradientUnits="userSpaceOnUse" x1="951.4432" y1="311.6575" x2="1005.5461" y2="311.6575">
					<stop  offset="7.831743e-03" style="stop-color:#D2D2D2"/>
					<stop  offset="9.698276e-02" style="stop-color:#D6D6D6"/>
				</linearGradient>
				<path class="st46" d="M1002.5,326.4h-48.1c-1.7,0-3-1.3-3-3v-23.4c0-1.7,1.3-3,3-3h48.1c1.7,0,3,1.3,3,3v23.4
					C1005.5,325,1004.2,326.4,1002.5,326.4z"/>
				<rect x="971" y="296.9" class="st0" width="4.4" height="29.4"/>
				<rect x="981.5" y="296.9" class="st0" width="4.4" height="29.4"/>
				<linearGradient id="SVGID_36_" gradientUnits="userSpaceOnUse" x1="1038.1182" y1="311.6575" x2="1092.2209" y2="311.6575">
					<stop  offset="7.831743e-03" style="stop-color:#D2D2D2"/>
					<stop  offset="9.698276e-02" style="stop-color:#D6D6D6"/>
				</linearGradient>
				<path class="st47" d="M1089.2,326.4h-48.1c-1.7,0-3-1.3-3-3v-23.4c0-1.7,1.3-3,3-3h48.1c1.7,0,3,1.3,3,3v23.4
					C1092.2,325,1090.9,326.4,1089.2,326.4z"/>
				<rect x="1057.7" y="296.9" class="st0" width="4.4" height="29.4"/>
				<rect x="1068.2" y="296.9" class="st0" width="4.4" height="29.4"/>
			</g>
			<circle class="st0" cx="1021.8" cy="311.5" r="2.6"/>
		</g>
		<g>
			<circle class="st387" cx="1191" cy="311.7" r="15.1"/>
			<circle class="st34" cx="1191" cy="311.7" r="12.1"/>
			<linearGradient id="SVGID_37_" gradientUnits="userSpaceOnUse" x1="1120.4432" y1="311.6575" x2="1174.546" y2="311.6575">
				<stop  offset="7.831743e-03" style="stop-color:#D2D2D2"/>
				<stop  offset="9.698276e-02" style="stop-color:#D6D6D6"/>
			</linearGradient>
			<path class="st48" d="M1171.5,326.4h-48.1c-1.7,0-3-1.3-3-3v-23.4c0-1.7,1.3-3,3-3h48.1c1.7,0,3,1.3,3,3v23.4
				C1174.5,325,1173.2,326.4,1171.5,326.4z"/>
			<rect x="1150.5" y="296.9" class="st0" width="4.4" height="29.4"/>
			<linearGradient id="SVGID_38_" gradientUnits="userSpaceOnUse" x1="1207.1182" y1="311.6575" x2="1261.2209" y2="311.6575">
				<stop  offset="7.831743e-03" style="stop-color:#D2D2D2"/>
				<stop  offset="9.698276e-02" style="stop-color:#D6D6D6"/>
			</linearGradient>
			<path class="st49" d="M1258.2,326.4h-48.1c-1.7,0-3-1.3-3-3v-23.4c0-1.7,1.3-3,3-3h48.1c1.7,0,3,1.3,3,3v23.4
				C1261.2,325,1259.9,326.4,1258.2,326.4z"/>
			<rect x="1226.7" y="296.9" class="st0" width="4.4" height="29.4"/>
			<rect x="1237.2" y="296.9" class="st0" width="4.4" height="29.4"/>
			<circle class="st0" cx="1190.8" cy="311.5" r="2.6"/>
		</g>
		<g>
			<circle class="st387" cx="1357" cy="311.7" r="15.1"/>
			<circle class="st34" cx="1357" cy="311.7" r="12.1"/>
			<linearGradient id="SVGID_39_" gradientUnits="userSpaceOnUse" x1="1286.4432" y1="311.6575" x2="1340.546" y2="311.6575">
				<stop  offset="7.831743e-03" style="stop-color:#D2D2D2"/>
				<stop  offset="9.698276e-02" style="stop-color:#D6D6D6"/>
			</linearGradient>
			<path class="st50" d="M1337.5,326.4h-48.1c-1.7,0-3-1.3-3-3v-23.4c0-1.7,1.3-3,3-3h48.1c1.7,0,3,1.3,3,3v23.4
				C1340.5,325,1339.2,326.4,1337.5,326.4z"/>
			<linearGradient id="SVGID_40_" gradientUnits="userSpaceOnUse" x1="1373.1182" y1="311.6575" x2="1427.2209" y2="311.6575">
				<stop  offset="7.831743e-03" style="stop-color:#D2D2D2"/>
				<stop  offset="9.698276e-02" style="stop-color:#D6D6D6"/>
			</linearGradient>
			<path class="st51" d="M1424.2,326.4h-48.1c-1.7,0-3-1.3-3-3v-23.4c0-1.7,1.3-3,3-3h48.1c1.7,0,3,1.3,3,3v23.4
				C1427.2,325,1425.9,326.4,1424.2,326.4z"/>
			<rect x="1392.7" y="296.9" class="st0" width="4.4" height="29.4"/>
			<rect x="1403.2" y="296.9" class="st0" width="4.4" height="29.4"/>
			<circle class="st0" cx="1356.8" cy="311.5" r="2.6"/>
		</g>
		<g>
			<g>
				<circle class="st387" cx="1526" cy="311.7" r="15.1"/>
				<circle class="st34" cx="1526" cy="311.7" r="12.1"/>
				<linearGradient id="SVGID_41_" gradientUnits="userSpaceOnUse" x1="1455.4432" y1="311.6575" x2="1509.546" y2="311.6575">
					<stop  offset="7.831743e-03" style="stop-color:#D2D2D2"/>
					<stop  offset="9.698276e-02" style="stop-color:#D6D6D6"/>
				</linearGradient>
				<path class="st52" d="M1506.5,326.4h-48.1c-1.7,0-3-1.3-3-3v-23.4c0-1.7,1.3-3,3-3h48.1c1.7,0,3,1.3,3,3v23.4
					C1509.5,325,1508.2,326.4,1506.5,326.4z"/>
				<linearGradient id="SVGID_42_" gradientUnits="userSpaceOnUse" x1="1542.1182" y1="311.6575" x2="1596.2209" y2="311.6575">
					<stop  offset="7.831743e-03" style="stop-color:#D2D2D2"/>
					<stop  offset="9.698276e-02" style="stop-color:#D6D6D6"/>
				</linearGradient>
				<path class="st54" d="M1593.2,326.4h-48.1c-1.7,0-3-1.3-3-3v-23.4c0-1.7,1.3-3,3-3h48.1c1.7,0,3,1.3,3,3v23.4
					C1596.2,325,1594.9,326.4,1593.2,326.4z"/>
				<rect x="1572.2" y="296.9" class="st0" width="4.4" height="29.4"/>
			</g>
			<circle class="st0" cx="1525.8" cy="311.5" r="2.6"/>
		</g>
		<g>
			<g>
				<circle class="st387" cx="1699" cy="311.7" r="15.1"/>
				<circle class="st34" cx="1699" cy="311.7" r="12.1"/>
				<linearGradient id="SVGID_43_" gradientUnits="userSpaceOnUse" x1="1628.4432" y1="311.6575" x2="1682.546" y2="311.6575">
					<stop  offset="7.831743e-03" style="stop-color:#D2D2D2"/>
					<stop  offset="9.698276e-02" style="stop-color:#D6D6D6"/>
				</linearGradient>
				<path class="st55" d="M1679.5,326.4h-48.1c-1.7,0-3-1.3-3-3v-23.4c0-1.7,1.3-3,3-3h48.1c1.7,0,3,1.3,3,3v23.4
					C1682.5,325,1681.2,326.4,1679.5,326.4z"/>
				<linearGradient id="SVGID_44_" gradientUnits="userSpaceOnUse" x1="1715.1182" y1="311.6575" x2="1769.2209" y2="311.6575">
					<stop  offset="7.831743e-03" style="stop-color:#D2D2D2"/>
					<stop  offset="9.698276e-02" style="stop-color:#D6D6D6"/>
				</linearGradient>
				<path class="st57" d="M1766.2,326.4h-48.1c-1.7,0-3-1.3-3-3v-23.4c0-1.7,1.3-3,3-3h48.1c1.7,0,3,1.3,3,3v23.4
					C1769.2,325,1767.9,326.4,1766.2,326.4z"/>
			</g>
			<circle class="st0" cx="1698.8" cy="311.5" r="2.6"/>
		</g>
		<text transform="matrix(1 0 0 1 951.377 64.4371)" class="st398 st347 st399">~40 years</text>
		<text transform="matrix(1 0 0 1 1120.377 64.4371)" class="st398 st347 st399">~30 years</text>
		<text transform="matrix(1 0 0 1 1286.377 64.4371)" class="st398 st347 st399">~20 years</text>
		<text transform="matrix(1 0 0 1 1455.377 64.4371)" class="st398 st347 st399">~10 years</text>
		<text transform="matrix(1 0 0 1 1628.377 64.4371)" class="st398 st347 st399">Recent</text>
		<text transform="matrix(1 0 0 1 336.8804 319.7926)" class="st346 st347 st400">Satellite</text>
		<line class="st231" x1="752.2" y1="161.7" x2="1793.2" y2="161.7"/>
		<line class="st231" x1="752.2" y1="216.2" x2="1793.2" y2="216.2"/>
		<line class="st231" x1="752.2" y1="281.7" x2="1793.2" y2="281.7"/>
	</g>
</g>
</svg>
